{
  "accessors": [
    {
      "bufferView": 2,
      "componentType": 5126,
      "count": 1832,
      "max": [
        9.4842634201049805,
        4.3729028701782227,
        -11.04777717590332
      ],
      "min": [
        -9.4842634201049805,
        -2.0857107639312744,
        -12.410646438598633
      ],
      "type": "VEC3"
    },
    {
      "bufferView": 2,
      "byteOffset": 21984,
      "componentType": 5126,
      "count": 1832,
      "max": [
        1,
        1,
        1
      ],
      "min": [
        -1,
        -0.99999994039535522,
        -1
      ],
      "type": "VEC3"
    },
    {
      "bufferView": 1,
      "componentType": 5126,
      "count": 1832,
      "max": [
        0.625,
        0.75000005960464478
      ],
      "min": [
        0.375,
        0.74999994039535522
      ],
      "type": "VEC2"
    },
    {
      "bufferView": 0,
      "componentType": 5125,
      "count": 11016,
      "max": [
        1831
      ],
      "min": [
        0
      ],
      "type": "SCALAR"
    },
    {
      "bufferView": 2,
      "byteOffset": 43968,
      "componentType": 5126,
      "count": 119,
      "max": [
        0.41616818308830261,
        1.6781866550445557,
        8.7513198852539062
      ],
      "min": [
        -0.41616818308830261,
        -1.8794243335723877,
        -0.89255499839782715
      ],
      "type": "VEC3"
    },
    {
      "bufferView": 2,
      "byteOffset": 45396,
      "componentType": 5126,
      "count": 119,
      "max": [
        0.99999970197677612,
        0.99984502792358398,
        0.98468369245529175
      ],
      "min": [
        -0.99999970197677612,
        -0.99984502792358398,
        -0.9999624490737915
      ],
      "type": "VEC3"
    },
    {
      "bufferView": 1,
      "byteOffset": 14656,
      "componentType": 5126,
      "count": 119,
      "max": [
        0.875,
        1
      ],
      "min": [
        0.125,
        0
      ],
      "type": "VEC2"
    },
    {
      "bufferView": 0,
      "byteOffset": 44064,
      "componentType": 5125,
      "count": 624,
      "max": [
        118
      ],
      "min": [
        0
      ],
      "type": "SCALAR"
    },
    {
      "bufferView": 2,
      "byteOffset": 46824,
      "componentType": 5126,
      "count": 119,
      "max": [
        0.41616818308830261,
        1.6781866550445557,
        8.7513198852539062
      ],
      "min": [
        -0.41616818308830261,
        -1.8794243335723877,
        -0.89255499839782715
      ],
      "type": "VEC3"
    },
    {
      "bufferView": 2,
      "byteOffset": 48252,
      "componentType": 5126,
      "count": 119,
      "max": [
        0.99999970197677612,
        0.99984502792358398,
        0.98468369245529175
      ],
      "min": [
        -0.99999970197677612,
        -0.99984502792358398,
        -0.9999624490737915
      ],
      "type": "VEC3"
    },
    {
      "bufferView": 1,
      "byteOffset": 15608,
      "componentType": 5126,
      "count": 119,
      "max": [
        0.875,
        1
      ],
      "min": [
        0.125,
        0
      ],
      "type": "VEC2"
    },
    {
      "bufferView": 0,
      "byteOffset": 46560,
      "componentType": 5125,
      "count": 624,
      "max": [
        118
      ],
      "min": [
        0
      ],
      "type": "SCALAR"
    },
    {
      "bufferView": 2,
      "byteOffset": 49680,
      "componentType": 5126,
      "count": 45,
      "max": [
        -1.131690502166748,
        4.2176704406738281,
        -11.722289085388184
      ],
      "min": [
        -8.4200019836425781,
        -1.9245796203613281,
        -12.298310279846191
      ],
      "type": "VEC3"
    },
    {
      "bufferView": 2,
      "byteOffset": 50220,
      "componentType": 5126,
      "count": 45,
      "max": [
        0.27684116363525391,
        0.077212832868099213,
        -0.96077620983123779
      ],
      "min": [
        -0.23910395801067352,
        -0.085470974445343018,
        -0.99993616342544556
      ],
      "type": "VEC3"
    },
    {
      "bufferView": 1,
      "byteOffset": 16560,
      "componentType": 5126,
      "count": 45,
      "max": [
        1,
        1
      ],
      "min": [
        0,
        0
      ],
      "type": "VEC2"
    },
    {
      "bufferView": 0,
      "byteOffset": 49056,
      "componentType": 5125,
      "count": 192,
      "max": [
        44
      ],
      "min": [
        0
      ],
      "type": "SCALAR"
    },
    {
      "bufferView": 2,
      "byteOffset": 50760,
      "componentType": 5126,
      "count": 45,
      "max": [
        -1.131690502166748,
        4.2176704406738281,
        -11.722289085388184
      ],
      "min": [
        -8.4200019836425781,
        -1.9245796203613281,
        -12.298310279846191
      ],
      "type": "VEC3"
    },
    {
      "bufferView": 2,
      "byteOffset": 51300,
      "componentType": 5126,
      "count": 45,
      "max": [
        0.27684116363525391,
        0.077212832868099213,
        -0.96077620983123779
      ],
      "min": [
        -0.23910395801067352,
        -0.085470974445343018,
        -0.99993616342544556
      ],
      "type": "VEC3"
    },
    {
      "bufferView": 1,
      "byteOffset": 16920,
      "componentType": 5126,
      "count": 45,
      "max": [
        1,
        1
      ],
      "min": [
        0,
        0
      ],
      "type": "VEC2"
    },
    {
      "bufferView": 0,
      "byteOffset": 49824,
      "componentType": 5125,
      "count": 192,
      "max": [
        44
      ],
      "min": [
        0
      ],
      "type": "SCALAR"
    },
    {
      "bufferView": 2,
      "byteOffset": 51840,
      "componentType": 5126,
      "count": 227,
      "max": [
        0.24494466185569763,
        1.5384360551834106,
        -0.79229390621185303
      ],
      "min": [
        -0.24494455754756927,
        1.1414930820465088,
        -11.530777931213379
      ],
      "type": "VEC3"
    },
    {
      "bufferView": 2,
      "byteOffset": 54564,
      "componentType": 5126,
      "count": 227,
      "max": [
        1,
        1,
        0.99996525049209595
      ],
      "min": [
        -1,
        -1,
        -0.99969941377639771
      ],
      "type": "VEC3"
    },
    {
      "bufferView": 1,
      "byteOffset": 17280,
      "componentType": 5126,
      "count": 227,
      "max": [
        0.625,
        0.75
      ],
      "min": [
        0.37499997019767761,
        0.5
      ],
      "type": "VEC2"
    },
    {
      "bufferView": 0,
      "byteOffset": 50592,
      "componentType": 5125,
      "count": 960,
      "max": [
        226
      ],
      "min": [
        0
      ],
      "type": "SCALAR"
    },
    {
      "bufferView": 2,
      "byteOffset": 57288,
      "componentType": 5126,
      "count": 227,
      "max": [
        0.24494466185569763,
        1.5384360551834106,
        -0.79229390621185303
      ],
      "min": [
        -0.24494455754756927,
        1.1414930820465088,
        -11.530777931213379
      ],
      "type": "VEC3"
    },
    {
      "bufferView": 2,
      "byteOffset": 60012,
      "componentType": 5126,
      "count": 227,
      "max": [
        1,
        1,
        0.99996525049209595
      ],
      "min": [
        -1,
        -1,
        -0.99969941377639771
      ],
      "type": "VEC3"
    },
    {
      "bufferView": 1,
      "byteOffset": 19096,
      "componentType": 5126,
      "count": 227,
      "max": [
        0.625,
        0.75
      ],
      "min": [
        0.37499997019767761,
        0.5
      ],
      "type": "VEC2"
    },
    {
      "bufferView": 0,
      "byteOffset": 54432,
      "componentType": 5125,
      "count": 960,
      "max": [
        226
      ],
      "min": [
        0
      ],
      "type": "SCALAR"
    }
  ],
  "asset": {
    "extras": {
      "author": "KeenanBabcock (https://sketchfab.com/KeenanBabcock)",
      "license": "CC-BY-4.0 (http://creativecommons.org/licenses/by/4.0/)",
      "source": "https://sketchfab.com/3d-models/aviators-b74c7b814fc646de8ec874abfc72d722",
      "title": "Aviators"
    },
    "generator": "Sketchfab-8.49.0",
    "version": "2.0"
  },
  "bufferViews": [
    {
      "buffer": 0,
      "byteLength": 58272,
      "byteOffset": 0,
      "name": "floatBufferViews",
      "target": 34963
    },
    {
      "buffer": 0,
      "byteLength": 20912,
      "byteOffset": 58272,
      "byteStride": 8,
      "name": "floatBufferViews",
      "target": 34962
    },
    {
      "buffer": 0,
      "byteLength": 62736,
      "byteOffset": 79184,
      "byteStride": 12,
      "name": "floatBufferViews",
      "target": 34962
    }
  ],
  "buffers": [
    {
      "byteLength": 141920,
      "uri": "scene.bin"
    }
  ],
  "materials": [
    {
      "doubleSided": true,
      "emissiveFactor": [
        0,
        0,
        0
      ],
      "name": "Default_Material",
      "pbrMetallicRoughness": {
        "baseColorFactor": [
          0.26188917819271429,
          0.17205477384997622,
          0.035120816409403482,
          1
        ],
        "metallicFactor": 0.71917157514725438,
        "roughnessFactor": 0.50636519095572863
      }
    },
    {
      "doubleSided": true,
      "emissiveFactor": [
        0,
        0,
        0
      ],
      "name": "EarPiece_mat",
      "pbrMetallicRoughness": {
        "baseColorFactor": [
          0.0065982759122492352,
          0.0065982759122492352,
          0.0065982759122492352,
          1
        ],
        "metallicFactor": 0,
        "roughnessFactor": 0.83469504085122559
      }
    },
    {
      "alphaMode": "BLEND",
      "doubleSided": true,
      "name": "Lenses_mat",
      "pbrMetallicRoughness": {
        "baseColorFactor": [
          0,
          0.0078046463491119574,
          0.034218421378723572,
          0.99277978339350181
        ],
        "metallicFactor": 0,
        "roughnessFactor": 0.111153334600038
      }
    }
  ],
  "meshes": [
    {
      "name": "Aviators_Aviators_Frame_Default_Material_0",
      "primitives": [
        {
          "attributes": {
            "NORMAL": 1,
            "POSITION": 0,
            "TEXCOORD_0": 2
          },
          "indices": 3,
          "material": 0,
          "mode": 4
        }
      ]
    },
    {
      "name": "Aviators_earpiece_R_EarPiece_mat_0",
      "primitives": [
        {
          "attributes": {
            "NORMAL": 5,
            "POSITION": 4,
            "TEXCOORD_0": 6
          },
          "indices": 7,
          "material": 1,
          "mode": 4
        }
      ]
    },
    {
      "name": "Aviators_earpiece_L_EarPiece_mat_0",
      "primitives": [
        {
          "attributes": {
            "NORMAL": 9,
            "POSITION": 8,
            "TEXCOORD_0": 10
          },
          "indices": 11,
          "material": 1,
          "mode": 4
        }
      ]
    },
    {
      "name": "Aviator_Lens_R_Lenses_mat_0",
      "primitives": [
        {
          "attributes": {
            "NORMAL": 13,
            "POSITION": 12,
            "TEXCOORD_0": 14
          },
          "indices": 15,
          "material": 2,
          "mode": 4
        }
      ]
    },
    {
      "name": "Aviator_Lens_L_Lenses_mat_0",
      "primitives": [
        {
          "attributes": {
            "NORMAL": 17,
            "POSITION": 16,
            "TEXCOORD_0": 18
          },
          "indices": 19,
          "material": 2,
          "mode": 4
        }
      ]
    },
    {
      "name": "Aviators_arm_R_Default_Material_0",
      "primitives": [
        {
          "attributes": {
            "NORMAL": 21,
            "POSITION": 20,
            "TEXCOORD_0": 22
          },
          "indices": 23,
          "material": 0,
          "mode": 4
        }
      ]
    },
    {
      "name": "Aviators_arm_L_Default_Material_0",
      "primitives": [
        {
          "attributes": {
            "NORMAL": 25,
            "POSITION": 24,
            "TEXCOORD_0": 26
          },
          "indices": 27,
          "material": 0,
          "mode": 4
        }
      ]
    }
  ],
  "nodes": [
    {
      "children": [
        1
      ],
      "name": "RootNode (gltf orientation matrix)",
      "rotation": [
        -0.70710678118654746,
        -0,
        -0,
        0.70710678118654757
      ]
    },
    {
      "children": [
        2
      ],
      "name": "RootNode (model correction matrix)"
    },
    {
      "children": [
        3
      ],
      "matrix": [
        1,
        0,
        0,
        0,
        0,
        0,
        1,
        0,
        0,
        -1,
        0,
        0,
        0,
        0,
        0,
        1
      ],
      "name": "3694454baaa0428eae74589a8293d4b7.fbx"
    },
    {
      "children": [
        4
      ],
      "name": "RootNode"
    },
    {
      "children": [
        5,
        7,
        9,
        11,
        13,
        15,
        17
      ],
      "matrix": [
        1,
        0,
        0,
        0,
        0,
        1,
        0,
        0,
        0,
        0,
        1,
        0,
        9.2393178939819336,
        0,
        0,
        1
      ],
      "name": "Aviators"
    },
    {
      "children": [
        6
      ],
      "matrix": [
        1,
        0,
        0,
        0,
        0,
        1,
        0,
        0,
        0,
        0,
        1,
        0,
        -9.2393178939819336,
        0,
        0,
        1
      ],
      "name": "Aviators_Aviators_Frame"
    },
    {
      "mesh": 0,
      "name": "Aviators_Aviators_Frame_Default_Material_0"
    },
    {
      "children": [
        8
      ],
      "name": "Aviators_earpiece_R"
    },
    {
      "mesh": 1,
      "name": "Aviators_earpiece_R_EarPiece_mat_0"
    },
    {
      "children": [
        10
      ],
      "matrix": [
        -1,
        -0,
        -0,
        -0,
        -0,
        1,
        1.2246467991473532e-16,
        -0,
        -0,
        -1.2246467991473532e-16,
        1,
        -0,
        -18.478635787963867,
        0,
        0,
        1
      ],
      "name": "Aviators_earpiece_L"
    },
    {
      "mesh": 2,
      "name": "Aviators_earpiece_L_EarPiece_mat_0"
    },
    {
      "children": [
        12
      ],
      "name": "Aviator_Lens_R"
    },
    {
      "mesh": 3,
      "name": "Aviator_Lens_R_Lenses_mat_0"
    },
    {
      "children": [
        14
      ],
      "matrix": [
        -1,
        -0,
        -0,
        -0,
        -0,
        1,
        1.2246467991473532e-16,
        -0,
        -0,
        -1.2246467991473532e-16,
        1,
        -0,
        -18.478635787963867,
        0,
        0,
        1
      ],
      "name": "Aviator_Lens_L"
    },
    {
      "mesh": 4,
      "name": "Aviator_Lens_L_Lenses_mat_0"
    },
    {
      "children": [
        16
      ],
      "name": "Aviators_arm_R"
    },
    {
      "mesh": 5,
      "name": "Aviators_arm_R_Default_Material_0"
    },
    {
      "children": [
        18
      ],
      "matrix": [
        -1,
        -0,
        -0,
        -0,
        -0,
        1,
        1.2246467991473532e-16,
        -0,
        -0,
        -1.2246467991473532e-16,
        1,
        -0,
        -18.478635787963867,
        0,
        0,
        1
      ],
      "name": "Aviators_arm_L"
    },
    {
      "mesh": 6,
      "name": "Aviators_arm_L_Default_Material_0"
    }
  ],
  "scene": 0,
  "scenes": [
    {
      "name": "OSG_Scene",
      "nodes": [
        0
      ]
    }
  ]
}

